<svg xmlns="http://www.w3.org/2000/svg" viewBox="0 0 150 41.229">
  <defs>
    <style>
      .cls-1 {
        fill: #fff;
      }

      .cls-2 {
        fill: #55cbff;
      }
    </style>
  </defs>
  <g id="freamap-logo-horiz--light" transform="translate(0 0.05)">
    <g id="グループ化_7" data-name="グループ化 7" transform="translate(0 -0.05)">
      <path id="パス_31" data-name="パス 31" class="cls-1" d="M40.619,9.941,21.295.091a1.2,1.2,0,0,0-1.126,0L.75,9.753A1.22,1.22,0,0,0,.75,12l19.325,9.756a1.19,1.19,0,0,0,.563.094h0a1.219,1.219,0,0,0,1.126-.75,1.236,1.236,0,0,0-.563-1.689L4.128,10.879l16.51-8.161L39.4,12.192a1.236,1.236,0,0,0,1.689-.563A1.086,1.086,0,0,0,40.619,9.941Z" transform="translate(0 0.05)"/>
      <path id="パス_32" data-name="パス 32" class="cls-2" d="M40.623,20.152,21.2,10.49a1.291,1.291,0,0,0-1.032-.094,1.669,1.669,0,0,0-.75.657,1.11,1.11,0,0,0-.094.938,1.669,1.669,0,0,0,.657.75l17.167,8.537-16.51,8.255L1.88,20.152a1.11,1.11,0,0,0-.938-.094,1.669,1.669,0,0,0-.75.657A1.236,1.236,0,0,0,.754,22.4l19.418,9.662a1.736,1.736,0,0,0,1.126,0L40.717,22.4a1.219,1.219,0,0,0,.75-1.126A1.5,1.5,0,0,0,40.623,20.152Z" transform="translate(-0.004 -0.593)"/>
      <path id="パス_33" data-name="パス 33" class="cls-1" d="M41.192,31.652a1.189,1.189,0,0,0-1.689-.563L20.742,40.47,1.98,31.089A1.11,1.11,0,0,0,1.042,31a1.669,1.669,0,0,0-.75.657A1.236,1.236,0,0,0,.854,33.34L20.273,43a1.19,1.19,0,0,0,.563.094c.188,0,.375-.094.563-.094L40.817,33.34A1.266,1.266,0,0,0,41.192,31.652Z" transform="translate(-0.01 -1.868)"/>
    </g>
    <g id="グループ化_8" data-name="グループ化 8" transform="translate(57.786 11.348)">
      <path id="パス_34" data-name="パス 34" class="cls-1" d="M63.664,19.417H61.6V17.072h2.064v-.657c0-2.814,1.689-4.315,3.94-4.315a4.892,4.892,0,0,1,2.158.469l-.563,1.97a2,2,0,0,0-1.126-.281c-1.032,0-1.689.657-1.689,2.064v.657h2.533v2.345H66.384V29.361h-2.72Z" transform="translate(-61.6 -12.1)"/>
      <path id="パス_35" data-name="パス 35" class="cls-1" d="M71.3,17.381h2.72v1.782A5.2,5.2,0,0,1,78.054,17.1v2.627a2.082,2.082,0,0,0-.844-.094,4.178,4.178,0,0,0-3.189,1.689v8.443H71.3Z" transform="translate(-62.201 -12.41)"/>
      <path id="パス_36" data-name="パス 36" class="cls-1" d="M85.985,17.1c3.752,0,6.1,2.814,6.1,6.754v.657H82.514a3.7,3.7,0,0,0,3.94,3.377,5.2,5.2,0,0,0,3.565-1.407l1.22,1.782a7.12,7.12,0,0,1-5.066,1.782A6.23,6.23,0,0,1,79.7,23.479,6.247,6.247,0,0,1,85.985,17.1Zm-3.471,5.441H89.55a3.3,3.3,0,0,0-3.471-3.283A3.45,3.45,0,0,0,82.514,22.541Z" transform="translate(-62.721 -12.41)"/>
      <path id="パス_37" data-name="パス 37" class="cls-1" d="M103.049,28.451a5.355,5.355,0,0,1-4.034,1.689A4.134,4.134,0,0,1,94.7,26.012c0-2.814,2.251-4.034,4.315-4.034a5.294,5.294,0,0,1,4.034,1.595V21.7c0-1.407-1.22-2.345-2.908-2.345a4.712,4.712,0,0,0-3.659,1.595L95.357,19.07a7.209,7.209,0,0,1,5.253-1.97c2.72,0,5.159,1.126,5.159,4.5v8.255h-2.72Zm0-3.377a3.764,3.764,0,0,0-3-1.313,2.331,2.331,0,0,0-2.627,2.251,2.386,2.386,0,0,0,2.627,2.251,3.764,3.764,0,0,0,3-1.313Z" transform="translate(-63.649 -12.41)"/>
      <path id="パス_38" data-name="パス 38" class="cls-1" d="M125.1,21.7c0-1.313-.563-2.251-2.064-2.251a3.752,3.752,0,0,0-2.908,1.689v8.724H117.5V21.7c0-1.313-.563-2.251-2.064-2.251a3.578,3.578,0,0,0-2.814,1.689v8.63H109.9V17.381h2.72V19.07a5.327,5.327,0,0,1,4.034-1.97,3.193,3.193,0,0,1,3.377,2.251,5.272,5.272,0,0,1,4.221-2.251c2.251,0,3.565,1.22,3.565,3.752v9.006H125.1Z" transform="translate(-64.59 -12.41)"/>
      <path id="パス_39" data-name="パス 39" class="cls-1" d="M139.949,28.451a5.355,5.355,0,0,1-4.034,1.689,4.134,4.134,0,0,1-4.315-4.128c0-2.814,2.251-4.034,4.315-4.034a5.294,5.294,0,0,1,4.034,1.595V21.7c0-1.407-1.22-2.345-2.908-2.345a4.712,4.712,0,0,0-3.659,1.595l-1.126-1.876a7.209,7.209,0,0,1,5.253-1.97c2.72,0,5.159,1.126,5.159,4.5v8.255h-2.72V28.451Zm0-3.377a3.705,3.705,0,0,0-2.908-1.313,2.331,2.331,0,0,0-2.627,2.251,2.386,2.386,0,0,0,2.627,2.251,3.449,3.449,0,0,0,2.908-1.313Z" transform="translate(-65.934 -12.41)"/>
      <path id="パス_40" data-name="パス 40" class="cls-1" d="M146.9,34.548V17.381h2.72V19.07a4.931,4.931,0,0,1,3.94-1.97c3.189,0,5.535,2.439,5.535,6.473,0,4.128-2.251,6.567-5.535,6.567a4.541,4.541,0,0,1-3.94-2.064v6.473H146.9Zm5.816-15.1a4.031,4.031,0,0,0-3.189,1.689v4.878a4.031,4.031,0,0,0,3.189,1.689c2.158,0,3.471-1.689,3.471-4.128C156.281,21.134,154.874,19.445,152.716,19.445Z" transform="translate(-66.881 -12.41)"/>
    </g>
  </g>
</svg>
