<svg id="freamap-logo-vert--light" xmlns="http://www.w3.org/2000/svg" viewBox="0 0 90 122.669">
  <defs>
    <style>
      .cls-1 {
        fill: #fff;
      }

      .cls-2 {
        fill: #55cbff;
      }
    </style>
  </defs>
  <g id="グループ化_66" data-name="グループ化 66" transform="translate(0 0)">
    <path id="パス_52" data-name="パス 52" class="cls-1" d="M88.631,21.5,46.107.283a2.22,2.22,0,0,0-2.169,0L1.32,21.5A2.74,2.74,0,0,0,0,23.761a2.464,2.464,0,0,0,1.32,2.169L43.844,47.238a2.511,2.511,0,0,0,1.131.283,2.424,2.424,0,0,0,1.037-4.62l-38-19.141L44.976,5.186,86.368,25.929a2.483,2.483,0,0,0,3.3-1.131A2.419,2.419,0,0,0,88.631,21.5Z"/>
    <path id="パス_53" data-name="パス 53" class="cls-2" d="M88.634,44.093,46.11,22.784a2.191,2.191,0,0,0-1.886-.094,2.294,2.294,0,0,0-1.414,1.226,2.483,2.483,0,0,0,1.131,3.3L82.034,46.262,44.978,64.837,3.586,44.093a2.467,2.467,0,0,0-2.169,4.432L43.941,69.834a2.4,2.4,0,0,0,2.263,0l42.43-21.309a2.3,2.3,0,0,0,1.32-2.169A2.208,2.208,0,0,0,88.634,44.093Z" transform="translate(-0.003 -1.286)"/>
    <path id="パス_54" data-name="パス 54" class="cls-1" d="M89.765,69.017a2.483,2.483,0,0,0-3.3-1.131L45.073,88.629,3.586,67.98a2.467,2.467,0,1,0-2.169,4.432L43.941,93.721a2.4,2.4,0,0,0,2.263,0l42.43-21.4A2.483,2.483,0,0,0,89.765,69.017Z" transform="translate(-0.003 -3.864)"/>
  </g>
  <g id="グループ化_67" data-name="グループ化 67" transform="translate(4.243 103.151)">
    <path id="パス_55" data-name="パス 55" class="cls-1" d="M6.291,115.812H4.5v-2.074H6.291v-.566c0-2.451,1.414-3.772,3.489-3.772a3.714,3.714,0,0,1,1.886.471l-.566,1.791a1.7,1.7,0,0,0-.943-.189c-.943,0-1.509.566-1.509,1.886v.566h2.263V116H8.743v8.863H6.291Z" transform="translate(-4.5 -109.4)"/>
    <path id="パス_56" data-name="パス 56" class="cls-1" d="M13,113.983h2.357v1.6A4.847,4.847,0,0,1,18.94,113.7v2.357c-.189,0-.471-.094-.754-.094a3.762,3.762,0,0,0-2.829,1.414v7.449H13Z" transform="translate(-4.985 -109.646)"/>
    <path id="パス_57" data-name="パス 57" class="cls-1" d="M25.963,113.7c3.3,0,5.374,2.546,5.374,5.94v.566H22.851a3.284,3.284,0,0,0,3.489,3.017A4.779,4.779,0,0,0,29.452,122l1.131,1.6a6.553,6.553,0,0,1-4.432,1.6,5.494,5.494,0,0,1-5.752-5.752A5.558,5.558,0,0,1,25.963,113.7Zm-3.112,4.809h6.223a2.917,2.917,0,0,0-3.112-2.923A3.176,3.176,0,0,0,22.851,118.509Z" transform="translate(-5.408 -109.646)"/>
    <path id="パス_58" data-name="パス 58" class="cls-1" d="M40.949,123.689a4.618,4.618,0,0,1-3.583,1.414,3.709,3.709,0,0,1-3.866-3.677c0-2.546,1.98-3.583,3.866-3.583a4.617,4.617,0,0,1,3.583,1.414v-1.509c0-1.226-1.037-2.074-2.546-2.074a4.37,4.37,0,0,0-3.206,1.414l-.943-1.7a6.327,6.327,0,0,1,4.62-1.791c2.451,0,4.526,1.037,4.526,3.96v7.26H41.043v-1.131Zm0-2.923a3.29,3.29,0,0,0-2.64-1.131,2.01,2.01,0,1,0,0,3.96,3.29,3.29,0,0,0,2.64-1.131Z" transform="translate(-6.156 -109.64)"/>
    <path id="パス_59" data-name="パス 59" class="cls-1" d="M60.483,117.754c0-1.226-.566-1.98-1.791-1.98a3.473,3.473,0,0,0-2.546,1.414v7.637H53.789v-7.072c0-1.226-.566-1.98-1.791-1.98a3.449,3.449,0,0,0-2.546,1.509v7.637H47V113.983h2.357v1.509A4.815,4.815,0,0,1,52.94,113.7a2.971,2.971,0,0,1,3.017,1.98,4.559,4.559,0,0,1,3.772-1.98,2.955,2.955,0,0,1,3.206,3.3v7.92H60.578v-7.166Z" transform="translate(-6.927 -109.646)"/>
    <path id="パス_60" data-name="パス 60" class="cls-1" d="M73.554,123.689a4.618,4.618,0,0,1-3.583,1.414,3.633,3.633,0,0,1-3.772-3.677,3.5,3.5,0,0,1,3.772-3.583,4.617,4.617,0,0,1,3.583,1.414v-1.509c0-1.226-1.037-2.074-2.546-2.074a4.37,4.37,0,0,0-3.206,1.414l-.943-1.7a6.327,6.327,0,0,1,4.62-1.791c2.451,0,4.526,1.037,4.526,3.96v7.26H73.554Zm0-2.923a3.29,3.29,0,0,0-2.64-1.131,2.01,2.01,0,1,0,0,3.96,3.29,3.29,0,0,0,2.64-1.131Z" transform="translate(-8.024 -109.64)"/>
    <path id="パス_61" data-name="パス 61" class="cls-1" d="M79.5,129.069V113.983h2.357v1.509a4.29,4.29,0,0,1,3.489-1.791c2.829,0,4.9,2.169,4.9,5.752s-1.98,5.752-4.9,5.752a4.053,4.053,0,0,1-3.489-1.791v5.752H79.5Zm5.28-13.295a3.564,3.564,0,0,0-2.829,1.509v4.337a3.847,3.847,0,0,0,2.829,1.509c1.886,0,3.112-1.509,3.112-3.677C87.8,117.283,86.666,115.774,84.78,115.774Z" transform="translate(-8.784 -109.646)"/>
  </g>
</svg>
