<svg xmlns="http://www.w3.org/2000/svg" viewBox="0 0 44.199 43.95">
  <defs>
    <style>
      .cls-1 {
        fill: #335aa7;
      }

      .cls-2 {
        fill: #55cbff;
      }
    </style>
  </defs>
  <g id="freamap-logo-horiz--color" transform="translate(0 0.05)">
    <g id="グループ化_7" data-name="グループ化 7">
      <path id="パス_31" data-name="パス 31" class="cls-1" d="M43.3,10.6,22.7.1a1.275,1.275,0,0,0-1.2,0L.8,10.4a1.3,1.3,0,0,0,0,2.4L21.4,23.2a1.268,1.268,0,0,0,.6.1h0a1.3,1.3,0,0,0,1.2-.8,1.317,1.317,0,0,0-.6-1.8L4.4,11.6,22,2.9,42,13a1.317,1.317,0,0,0,1.8-.6A1.157,1.157,0,0,0,43.3,10.6Z"/>
      <path id="パス_32" data-name="パス 32" class="cls-2" d="M43.3,20.8,22.6,10.5a1.376,1.376,0,0,0-1.1-.1,1.779,1.779,0,0,0-.8.7,1.183,1.183,0,0,0-.1,1,1.779,1.779,0,0,0,.7.8L39.6,22,22,30.8,2,20.8a1.183,1.183,0,0,0-1-.1,1.779,1.779,0,0,0-.8.7,1.317,1.317,0,0,0,.6,1.8L21.5,33.5a1.85,1.85,0,0,0,1.2,0L43.4,23.2a1.3,1.3,0,0,0,.8-1.2A1.594,1.594,0,0,0,43.3,20.8Z"/>
      <path id="パス_33" data-name="パス 33" class="cls-1" d="M43.9,31.7a1.267,1.267,0,0,0-1.8-.6l-20,10-20-10a1.183,1.183,0,0,0-1-.1,1.779,1.779,0,0,0-.8.7,1.317,1.317,0,0,0,.6,1.8L21.6,43.8a1.268,1.268,0,0,0,.6.1c.2,0,.4-.1.6-.1L43.5,33.5A1.35,1.35,0,0,0,43.9,31.7Z"/>
    </g>
  </g>
</svg>
