<svg xmlns="http://www.w3.org/2000/svg" viewBox="0 0 21.119 21">
  <defs>
    <style>
      .cls-1 {
        fill: #fff;
      }
    </style>
  </defs>
  <g id="icon-freamap" transform="translate(-0.001 0.05)">
    <path id="パス_31" data-name="パス 31" class="cls-1" d="M20.689,5.039,10.846.022a.609.609,0,0,0-.573,0L.382,4.943a.621.621,0,0,0,0,1.147l9.843,4.969a.606.606,0,0,0,.287.048h0a.621.621,0,0,0,.573-.382.629.629,0,0,0-.287-.86L2.1,5.517,10.512,1.36l9.556,4.826a.629.629,0,0,0,.86-.287A.553.553,0,0,0,20.689,5.039Z"/>
    <path id="パス_32" data-name="パス 32" class="cls-1" d="M20.723,15.335l-9.891-4.921a.657.657,0,0,0-.526-.048.85.85,0,0,0-.382.334.565.565,0,0,0-.048.478.85.85,0,0,0,.334.382l8.744,4.348-8.409,4.2L.99,15.335a.565.565,0,0,0-.478-.048.85.85,0,0,0-.382.334.629.629,0,0,0,.287.86L10.307,21.4a.884.884,0,0,0,.573,0l9.891-4.921a.621.621,0,0,0,.382-.573A.762.762,0,0,0,20.723,15.335Z" transform="translate(-0.034 -5.423)"/>
    <path id="パス_33" data-name="パス 33" class="cls-1" d="M21.062,31.293a.605.605,0,0,0-.86-.287l-9.556,4.778L1.09,31.006a.565.565,0,0,0-.478-.048.85.85,0,0,0-.382.334.629.629,0,0,0,.287.86l9.891,4.921a.606.606,0,0,0,.287.048c.1,0,.191-.048.287-.048l9.891-4.921A.645.645,0,0,0,21.062,31.293Z" transform="translate(-0.086 -16.173)"/>
  </g>
</svg>
